<svg width="185" height="177" viewBox="0 0 185 177" fill="none" xmlns="http://www.w3.org/2000/svg">
<g clip-path="url(#clip0_1163_5939)">
<path d="M3 70.5H41C42.3807 70.5 43.5 71.6193 43.5 73V174C43.5 175.381 42.3807 176.5 41 176.5H3C1.61929 176.5 0.5 175.381 0.5 174V73C0.5 71.6193 1.61929 70.5 3 70.5Z" fill="#51CF66"/>
<path d="M3 70.5H41C42.3807 70.5 43.5 71.6193 43.5 73V174C43.5 175.381 42.3807 176.5 41 176.5H3C1.61929 176.5 0.5 175.381 0.5 174V73C0.5 71.6193 1.61929 70.5 3 70.5Z" stroke="white"/>
<path d="M63 110.5H101C102.381 110.5 103.5 111.619 103.5 113V174C103.5 175.381 102.381 176.5 101 176.5H63C61.6193 176.5 60.5 175.381 60.5 174V113C60.5 111.619 61.6193 110.5 63 110.5Z" fill="#339AF0"/>
<path d="M63 110.5H101C102.381 110.5 103.5 111.619 103.5 113V174C103.5 175.381 102.381 176.5 101 176.5H63C61.6193 176.5 60.5 175.381 60.5 174V113C60.5 111.619 61.6193 110.5 63 110.5Z" stroke="white"/>
<path d="M123 140.5H159C160.381 140.5 161.5 141.619 161.5 143V174C161.5 175.381 160.381 176.5 159 176.5H123C121.619 176.5 120.5 175.381 120.5 174V143C120.5 141.619 121.619 140.5 123 140.5Z" fill="#F4933C"/>
<path d="M123 140.5H159C160.381 140.5 161.5 141.619 161.5 143V174C161.5 175.381 160.381 176.5 159 176.5H123C121.619 176.5 120.5 175.381 120.5 174V143C120.5 141.619 121.619 140.5 123 140.5Z" stroke="white"/>
</g>
<defs>
<clipPath id="clip0_1163_5939">
<rect width="162" height="177" fill="white"/>
</clipPath>
</defs>
</svg>
